<svg width="550" height="174" viewBox="0 0 550 174" fill="none" xmlns="http://www.w3.org/2000/svg">
<g clip-path="url(#clip0_694_2500)">
<path fill-rule="evenodd" clip-rule="evenodd" d="M147.396 0C136.658 0.809579 125.919 1.25117 115.255 2.42874C109.848 3.09112 104.516 4.71028 99.2578 6.25584C95.7029 7.28622 93.4812 9.86215 93.1109 13.6893C92.8146 17.2956 92.2222 20.9019 92 24.5082C91.5556 31.5 93.6293 37.535 99.1097 42.2453C102.59 45.1893 104.812 48.8692 106.293 53.0643C107.552 56.597 108.737 60.2033 109.848 63.8096C112.44 72.0526 114.662 80.5164 117.55 88.6122C121.772 100.388 129.252 109.514 140.583 115.328C150.803 120.554 161.541 124.307 173.095 125.264C178.501 125.706 183.833 125.632 189.091 124.234C193.683 122.982 197.164 120.48 198.941 115.991C200.497 112.016 199.608 108.999 195.757 107.306C192.572 105.981 189.091 105.098 185.685 104.583C180.13 103.773 174.502 103.773 169.021 102.743C154.432 99.9463 143.249 92.3657 136.88 78.6764C131.548 67.1215 129.104 54.8306 129.326 42.1717C129.548 31.6472 134.214 26.2745 144.582 24.0666C145.841 23.7722 147.1 23.5514 148.359 23.4778C162.578 22.153 176.65 22.6682 190.721 25.0234C196.794 26.0537 202.792 25.6122 208.347 22.521C215.382 18.5467 215.605 12.8797 209.013 8.24299C207.828 7.43341 206.569 6.69743 205.31 6.25584C202.274 5.22547 199.238 4.1215 196.053 3.60631C179.982 1.10397 163.763 0.367991 147.396 0Z" fill="white"/>
<path fill-rule="evenodd" clip-rule="evenodd" d="M401.863 0.8096C394.457 0.8096 387.125 0.662403 379.72 0.883198C375.276 0.956796 371.203 2.35516 367.87 5.44628C364.834 8.16941 363.056 11.4077 364.241 15.5292C365.352 19.6507 368.537 21.9323 372.61 22.5946C375.72 23.1098 378.979 23.1098 382.163 23.1834C389.495 23.3306 396.827 22.9626 404.085 23.6986C414.675 24.729 420.156 30.6904 420.822 41.215C421.563 52.6227 418.601 63.368 415.046 74.0397C411.417 84.9323 404.751 93.1017 394.383 98.3271C392.235 99.3575 390.236 100.756 388.458 102.228C385.2 104.951 384.311 108.557 385.644 112.458C386.903 116.359 389.495 119.082 393.791 119.818C398.308 120.554 402.382 119.155 406.307 117.315C420.23 110.618 429.635 100.02 434.079 85.3003C436.967 75.9533 439.633 66.5327 442.522 57.1858C444.521 50.7827 447.335 44.9685 452.668 40.479C454.519 38.9334 455.852 36.4311 456.519 34.1496C458.592 26.9369 458.444 19.6507 456.445 12.4381C455.556 9.19979 453.63 6.91824 450.224 6.03507C448.002 5.44628 445.78 4.6367 443.558 4.19511C429.783 1.39838 415.86 0.883198 401.863 0.8096Z" fill="white"/>
<path fill-rule="evenodd" clip-rule="evenodd" d="M147.396 0C163.689 0.367991 179.982 1.10397 196.053 3.67991C199.164 4.19509 202.274 5.29907 205.31 6.32944C206.643 6.77103 207.902 7.50701 209.013 8.31659C215.605 12.9533 215.382 18.6203 208.347 22.5946C202.866 25.6857 196.868 26.1273 190.721 25.097C176.65 22.7418 162.504 22.2266 148.359 23.5514C147.1 23.6986 145.841 23.9194 144.582 24.1402C134.214 26.3481 129.548 31.7208 129.326 42.2453C129.104 54.9778 131.474 67.1951 136.88 78.75C143.175 92.4393 154.432 100.02 169.021 102.817C174.502 103.847 180.13 103.847 185.685 104.657C189.091 105.172 192.572 106.055 195.757 107.38C199.682 108.999 200.571 112.09 198.941 116.064C197.164 120.554 193.683 123.13 189.091 124.307C183.833 125.706 178.427 125.853 173.095 125.338C161.541 124.307 150.803 120.627 140.583 115.402C129.252 109.588 121.772 100.461 117.55 88.6858C114.662 80.5164 112.366 72.1262 109.848 63.8832C108.737 60.2769 107.552 56.6706 106.293 53.1379C104.812 48.9428 102.59 45.2629 99.1097 42.3189C93.7034 37.6086 91.6297 31.5 92.0741 24.5818C92.2962 20.9755 92.8147 17.3692 93.185 13.7629C93.4812 9.86215 95.703 7.28622 99.2578 6.25584C104.516 4.71028 109.848 3.01752 115.255 2.42874C125.919 1.25117 136.658 0.809579 147.396 0Z" fill="#DE2A1B"/>
<path fill-rule="evenodd" clip-rule="evenodd" d="M401.863 0.809599C415.786 0.883197 429.783 1.39838 443.484 4.04792C445.706 4.48951 447.928 5.22549 450.15 5.88787C453.482 6.77105 455.408 9.05259 456.371 12.2909C458.37 19.5035 458.518 26.8633 456.445 34.0024C455.778 36.3575 454.445 38.8598 452.594 40.3318C447.261 44.8213 444.373 50.6355 442.448 57.0386C439.559 66.3855 436.893 75.8061 434.005 85.1531C429.487 99.8727 420.082 110.471 406.233 117.168C402.308 119.082 398.234 120.407 393.717 119.671C389.421 118.935 386.829 116.211 385.57 112.311C384.237 108.336 385.126 104.73 388.384 102.081C390.236 100.535 392.236 99.2103 394.309 98.1799C404.677 92.9545 411.343 84.7851 414.972 73.8925C418.526 63.2208 421.489 52.4019 420.748 41.0678C420.082 30.5432 414.601 24.5818 404.011 23.5514C396.753 22.8154 389.421 23.257 382.089 23.0362C378.905 22.9626 375.646 22.9626 372.536 22.4474C368.463 21.7851 365.278 19.5035 364.167 15.382C363.056 11.2605 364.834 8.02222 367.796 5.29908C371.203 2.28156 375.276 0.883197 379.645 0.736001C387.125 0.662402 394.531 0.809599 401.863 0.809599Z" fill="#DE2A1B"/>
<path d="M273.593 20.2395C273.593 20.2395 266.113 21.7114 250.116 15.9708C250.116 15.9708 232.86 11.0397 229.898 11.7021C226.936 12.2909 220.492 14.3516 220.641 23.4042C220.789 32.4568 228.565 36.2839 228.565 36.2839C228.565 36.2839 239.007 40.5526 237.674 52.4755C237.674 52.4755 238.859 67.4895 225.899 85.5946C225.899 85.5946 220.789 92.292 214.42 96.2663C214.42 96.2663 203.829 102.964 209.458 113.341C209.458 113.341 216.938 124.013 230.342 113.341C230.342 113.341 241.821 107.232 254.115 78.75L261.151 62.4112C261.151 62.4112 262.78 53.0642 274.704 53.8002C274.704 53.8002 283.813 52.4755 288.331 65.9439C289.886 69.9182 291.515 73.8925 293.367 77.7932C296.699 85.0058 300.18 91.9976 304.031 98.9159C310.993 111.575 327.063 119.891 340.394 123.792C345.43 125.264 350.836 125.926 356.095 125.926C356.095 125.926 373.128 127.84 374.461 114.371C374.461 114.371 373.424 104.73 361.353 104.583C361.353 104.583 351.503 103.994 349.133 103.847C346.763 103.7 324.62 97.8855 315.362 75.3645C315.362 75.3645 309.363 66.0175 309.511 49.5315C309.511 49.5315 309.808 39.4486 321.583 35.4007C333.359 31.4264 348.911 27.0841 352.17 21.2699C352.17 21.2699 357.428 11.3341 348.318 6.40303C348.318 6.40303 343.505 3.16471 324.842 8.75817C306.253 14.4252 283.739 20.8283 273.593 20.2395Z" fill="#01A3D4"/>
</g>
<rect y="68" width="550" height="106" fill="#F3F5F9" fill-opacity="0.08"/>
<path d="M149.993 114.955C149.993 108.164 149.993 101.759 149.993 95.2092C153.075 95.2092 156.013 95.2092 159.095 95.2092C159.095 111.68 159.095 128.15 159.095 144.765C156.109 144.765 153.171 144.765 150.137 144.765C150.041 144.043 149.945 143.321 149.8 142.357C144.695 146.788 139.205 147.27 133.715 143.899C123.649 137.734 123.409 120.3 133.137 113.606C138.242 110.139 143.78 110.476 149.993 114.955ZM135.111 128.391C135.882 130.462 136.315 132.581 137.375 134.267C140.457 139.034 146.429 138.794 149.318 133.881C151.389 130.414 151.197 125.791 148.789 122.564C145.851 118.663 140.313 118.567 137.568 122.612C136.508 124.249 135.978 126.32 135.111 128.391Z" fill="black"/>
<path d="M269.91 114.714C270.055 113.895 270.199 113.221 270.295 112.45C273.281 112.45 276.123 112.45 279.205 112.45C279.205 123.19 279.205 133.881 279.205 144.717C276.267 144.717 273.329 144.717 270.199 144.717C270.103 144.043 270.055 143.369 269.958 142.695C269.718 142.743 269.525 142.695 269.429 142.791C263.553 148.618 250.887 146.981 247.275 134.989C245.156 127.861 245.879 121.119 251.176 115.484C256.088 110.235 263.264 109.85 268.995 114.136C269.284 114.329 269.525 114.473 269.91 114.714ZM271.018 129.065C271.066 124.057 268.128 120.204 264.275 119.722C260.664 119.241 257.341 121.745 256.185 125.791C254.74 130.751 257.437 136.386 261.819 137.541C265.672 138.553 269.766 135.519 270.825 130.847C270.97 130.077 271.018 129.354 271.018 129.065Z" fill="black"/>
<path d="M187.798 114.906C187.316 112.547 188.424 112.258 190.062 112.354C192.277 112.45 194.492 112.402 196.9 112.402C196.9 123.334 196.9 134.026 196.9 144.814C193.914 144.814 191.025 144.814 187.943 144.814C187.846 144.139 187.702 143.513 187.605 142.743C187.413 142.791 187.124 142.791 187.028 142.887C181.393 148.137 170.894 146.884 166.415 138.408C163.092 132.099 162.948 125.598 166.078 119.241C169.642 111.969 179.081 107.971 187.798 114.906ZM188.665 128.969C188.617 124.057 185.775 120.3 181.971 119.722C178.407 119.193 175.18 121.456 173.88 125.405C172.243 130.414 174.891 136.193 179.37 137.445C183.223 138.505 187.268 135.615 188.424 130.847C188.569 130.077 188.617 129.306 188.665 128.969Z" fill="black"/>
<path d="M224.736 114.666C223.34 116.544 222.088 118.181 220.836 119.915C219.632 119.289 218.572 118.567 217.368 118.133C215.634 117.507 213.949 117.748 213.082 119.626C212.119 121.697 213.756 122.516 215.201 123.238C216.694 123.96 218.331 124.49 219.872 125.164C227.289 128.487 228.493 137.879 222.184 143.08C216.405 147.799 206.869 146.644 202.053 140.431C203.354 138.745 204.702 136.964 206.195 134.989C206.869 135.567 207.399 136.241 208.025 136.53C209.711 137.301 211.444 138.264 213.274 138.601C214.864 138.89 216.164 137.879 216.646 136.145C217.127 134.507 216.405 133.255 215.008 132.533C213.371 131.666 211.637 131.04 210 130.269C204.798 127.958 202.92 124.442 204.076 119.096C205.087 114.425 208.988 111.246 213.997 111.246C217.801 111.246 221.462 112.065 224.736 114.666Z" fill="black"/>
<path d="M310.124 145.391C300.251 145.343 292.593 137.83 292.593 128.15C292.593 118.374 300.395 110.717 310.268 110.765C320.141 110.813 327.894 118.567 327.846 128.295C327.75 137.927 319.996 145.44 310.124 145.391ZM310.316 140.624C317.059 140.576 322.549 134.941 322.549 128.054C322.549 121.119 316.866 115.34 310.124 115.388C303.381 115.484 297.939 121.119 297.891 128.006C297.891 135.037 303.429 140.672 310.316 140.624Z" fill="#DE2A1B"/>
<path d="M423.443 118.759C415.352 114.184 408.562 114.473 404.179 119.482C400.327 123.864 400.038 131.233 403.601 136C407.647 141.491 413.185 141.876 423.636 137.156C423.636 138.649 423.78 140.094 423.588 141.491C423.491 142.117 422.865 142.887 422.287 143.272C416.99 146.595 407.936 146.018 402.686 142.165C397.1 138.071 394.644 130.944 396.329 123.768C397.87 117.218 403.12 112.402 409.958 111.15C413.619 110.476 417.134 110.909 420.554 112.306C424.31 113.895 424.503 114.425 423.443 118.759Z" fill="#DE2A1B"/>
<path d="M332.71 111.776C336.997 111.776 341.042 111.535 344.991 111.824C349.374 112.161 352.167 115.87 352.167 120.589C352.167 125.55 349.374 128.969 344.847 129.402C342.487 129.643 340.079 129.74 337.478 129.884C337.478 134.7 337.478 139.468 337.478 144.428C335.793 144.428 334.348 144.428 332.759 144.428C332.71 133.544 332.71 122.756 332.71 111.776ZM337.719 115.677C337.719 117.7 337.719 119.048 337.719 120.397C337.719 126.079 338.104 126.368 343.594 125.116C345.569 124.683 346.677 123.479 346.773 121.456C346.869 119.289 346.484 117.266 344.172 116.64C342.198 116.11 340.127 116.014 337.719 115.677Z" fill="#DE2A1B"/>
<path d="M232.105 112.498C235.043 112.498 237.98 112.498 241.111 112.498C241.111 123.238 241.111 133.93 241.111 144.765C238.125 144.765 235.187 144.765 232.105 144.765C232.105 134.026 232.105 123.334 232.105 112.498Z" fill="black"/>
<path d="M368.782 144.476C366.952 144.476 365.411 144.476 363.581 144.476C363.581 139.66 363.581 134.989 363.581 130.269C363.581 125.55 363.581 120.878 363.581 115.87C360.595 115.87 357.802 115.87 354.912 115.87C354.912 114.377 354.912 113.124 354.912 111.728C362.377 111.728 369.697 111.728 377.258 111.728C377.258 112.98 377.258 114.232 377.258 115.773C374.561 115.773 371.816 115.773 368.782 115.773C368.782 125.502 368.782 134.893 368.782 144.476Z" fill="#DE2A1B"/>
<path d="M383.278 144.38C383.278 133.496 383.278 122.708 383.278 112.017C383.519 111.872 383.663 111.728 383.808 111.68C388.287 111.246 388.287 111.246 388.287 115.725C388.287 123.96 388.287 132.244 388.287 140.479C388.287 145.151 388.287 145.151 383.278 144.38Z" fill="#DE2A1B"/>
<path d="M227.193 104.408C229.071 104.408 230.756 104.408 232.49 104.408C233.261 104.408 234.224 104.504 234.85 104.119C235.621 103.637 236.584 102.818 236.68 102C236.776 101.374 235.765 100.507 235.091 99.9288C234.609 99.4954 233.839 99.4472 232.827 99.0619C235.235 97.6171 237.354 97.7616 239.425 98.773C241.111 99.6399 241.833 101.085 241.592 102.963C241.496 103.733 241.207 104.552 240.774 105.13C237.884 108.935 230.179 108.598 227.193 104.408Z" fill="black"/>
<path d="M227.674 98.8693C232.538 93.8607 240.918 93.7644 245.349 98.2914C247.709 100.699 247.66 101.759 245.156 103.974C244.53 104.504 243.856 105.034 242.604 105.997C242.604 104.408 242.652 103.541 242.604 102.626C242.459 99.399 240.629 97.28 237.402 97.28C235.043 97.28 232.683 97.8579 230.323 98.195C229.456 98.3395 228.541 98.6285 227.674 98.8693Z" fill="black"/>
<defs>
<filter id="filter0_b_694_2500" x="-40" y="28" width="630" height="186" filterUnits="userSpaceOnUse" color-interpolation-filters="sRGB">
<feFlood flood-opacity="0" result="BackgroundImageFix"/>
<feGaussianBlur in="BackgroundImageFix" stdDeviation="20"/>
<feComposite in2="SourceAlpha" operator="in" result="effect1_backgroundBlur_694_2500"/>
<feBlend mode="normal" in="SourceGraphic" in2="effect1_backgroundBlur_694_2500" result="shape"/>
</filter>
<clipPath id="clip0_694_2500">
<rect width="366" height="126" fill="white" transform="translate(92)"/>
</clipPath>
</defs>
</svg>
