<svg width="45" height="45" viewBox="0 0 45 45" fill="none" xmlns="http://www.w3.org/2000/svg">
<rect opacity="0.08" width="45" height="45" rx="8" fill="#282F6C"/>
<path d="M27.19 12H18.81C15.17 12 13 14.17 13 17.81V26.18C13 29.83 15.17 32 18.81 32H27.18C30.82 32 32.99 29.83 32.99 26.19V17.81C33 14.17 30.83 12 27.19 12ZM27 22.75H23.75V26C23.75 26.41 23.41 26.75 23 26.75C22.59 26.75 22.25 26.41 22.25 26V22.75H19C18.59 22.75 18.25 22.41 18.25 22C18.25 21.59 18.59 21.25 19 21.25H22.25V18C22.25 17.59 22.59 17.25 23 17.25C23.41 17.25 23.75 17.59 23.75 18V21.25H27C27.41 21.25 27.75 21.59 27.75 22C27.75 22.41 27.41 22.75 27 22.75Z" fill="#282F6C"/>
</svg>