<svg width="188" height="274" viewBox="0 0 188 274" fill="none" xmlns="http://www.w3.org/2000/svg">
<path d="M21.1946 73.0652L17.308 71.1431C15.6588 70.3274 13.753 70.2003 12.0101 70.7898C10.2671 71.3792 8.82968 72.6369 8.01401 74.2862L4.93855 80.5047C4.12288 82.154 3.99579 84.0597 4.58523 85.8027C5.17468 87.5456 6.43237 88.9831 8.08163 89.7987L14.2769 92.8627C5.92806 109.608 -4.41318 125.283 -16.5221 139.547L33.2264 164.151C37.2133 145.87 43.3942 128.137 51.6348 111.339L57.8301 114.402C59.4793 115.218 61.3851 115.345 63.128 114.756C64.871 114.166 66.3084 112.909 67.1241 111.259L70.1996 105.041C71.0152 103.392 71.1423 101.486 70.5529 99.7428C69.9634 97.9999 68.7057 96.5625 67.0565 95.7468L63.1699 93.8246L93.7141 65.2118C94.5329 64.445 95.1535 63.4911 95.5228 62.4319C95.8921 61.3727 95.999 60.2397 95.8344 59.13C95.6698 58.0204 95.2386 56.9673 94.5777 56.0608C93.9168 55.1544 93.046 54.4218 92.0399 53.9257L69.9291 42.9905L76.08 30.5534L85.4078 35.1666C86.2324 35.5744 87.1853 35.638 88.0568 35.3433C88.9283 35.0485 89.647 34.4197 90.0548 33.5951L93.1303 27.3765C93.5381 26.5519 93.6017 25.599 93.307 24.7275C93.0122 23.856 92.3834 23.1373 91.5587 22.7295L82.2309 18.1163L86.8441 8.78846C87.2519 7.96383 87.3155 7.01096 87.0208 6.13948C86.726 5.268 86.0972 4.54928 85.2726 4.14145L79.054 1.06599C78.2294 0.658154 77.2765 0.594611 76.405 0.889332C75.5335 1.18405 74.8148 1.8129 74.407 2.63753L69.7938 11.9654L60.466 7.35217C59.6413 6.94433 58.6885 6.88079 57.817 7.17551C56.9455 7.47023 56.2268 8.09908 55.819 8.92371L52.7435 15.1423C52.3357 15.9669 52.2721 16.9198 52.5668 17.7912C52.8616 18.6627 53.4904 19.3814 54.315 19.7893L63.6429 24.4025L57.4919 36.8396L35.3733 25.9005C34.3684 25.402 33.2576 25.1546 32.1361 25.1795C31.0146 25.2045 29.9159 25.501 28.9342 26.0437C27.9524 26.5863 27.1169 27.359 26.4992 28.2954C25.8815 29.2318 25.5001 30.304 25.3877 31.4201L21.1946 73.0652ZM40.1371 204.128L33.3616 195.176L36.4371 188.957C37.2527 187.308 37.3798 185.402 36.7904 183.66C36.2009 181.917 34.9432 180.479 33.294 179.663L-28.8916 148.909C-30.5408 148.093 -32.4466 147.966 -34.1895 148.555C-35.9325 149.145 -37.3699 150.403 -38.1856 152.052L-41.2611 158.27L-52.4844 158.321C-53.7729 158.326 -55.0346 158.69 -56.128 159.372C-57.2213 160.054 -58.1032 161.027 -58.6747 162.182L-62.9246 170.775C-63.7402 172.424 -63.8673 174.33 -63.2779 176.073C-62.6884 177.816 -61.4307 179.254 -59.7815 180.069L27.2783 223.126C28.9276 223.941 30.8333 224.068 32.5763 223.479C34.3192 222.89 35.7567 221.632 36.5723 219.983L40.8222 211.389C41.3934 210.235 41.6318 208.944 41.5108 207.662C41.3898 206.379 40.9141 205.156 40.1371 204.128ZM106.521 160.638L89.4421 191.953L138.693 216.311L153.216 183.727L166.774 180.375C168.733 179.889 170.563 178.982 172.136 177.716C173.708 176.45 174.986 174.857 175.879 173.046L187.131 150.294C187.437 149.676 187.485 148.961 187.264 148.307C187.043 147.654 186.571 147.115 185.953 146.809L175.7 141.738C175.081 141.432 174.367 141.385 173.713 141.606C173.059 141.827 172.52 142.298 172.214 142.917L167.217 153.022L157.613 148.272L162.611 138.167C162.917 137.549 162.964 136.834 162.743 136.18C162.522 135.527 162.05 134.988 161.432 134.682L140.518 124.339C139.9 124.033 139.185 123.985 138.531 124.206C137.878 124.427 137.339 124.899 137.033 125.517L132.035 135.622L122.432 130.873L127.429 120.768C127.735 120.149 127.783 119.435 127.562 118.781C127.341 118.127 126.869 117.588 126.251 117.282L115.994 112.21C115.375 111.904 114.661 111.856 114.007 112.077C113.353 112.298 112.814 112.77 112.509 113.388L101.245 136.164C100.354 137.972 99.8684 139.952 99.8209 141.967C99.7735 143.982 100.165 145.983 100.97 147.831L106.521 160.638ZM123.226 169.964C124.042 168.314 125.479 167.057 127.222 166.467C128.965 165.878 130.871 166.005 132.52 166.821C134.17 167.636 135.427 169.074 136.017 170.817C136.606 172.56 136.479 174.465 135.663 176.115L129.513 188.552L117.075 182.401L123.226 169.964ZM139.634 253.336L132.858 244.383L135.934 238.165C136.75 236.516 136.877 234.61 136.287 232.867C135.698 231.124 134.44 229.687 132.791 228.871L83.0424 204.267C81.3932 203.452 79.4874 203.324 77.7444 203.914C76.0015 204.503 74.5641 205.761 73.7484 207.41L70.6729 213.629L59.4496 213.68C58.161 213.685 56.8994 214.049 55.806 214.731C54.7127 215.412 53.8308 216.385 53.2593 217.54L49.0094 226.134C48.1938 227.783 48.0667 229.689 48.6561 231.432C49.2456 233.174 50.5033 234.612 52.1525 235.428L126.775 272.333C128.424 273.149 130.33 273.276 132.073 272.686C133.816 272.097 135.254 270.839 136.069 269.19L140.319 260.597C140.89 259.442 141.129 258.151 141.008 256.869C140.887 255.587 140.411 254.363 139.634 253.336Z" fill="white"/>
</svg>
