<svg width="20" height="20" viewBox="0 0 20 20" fill="none" xmlns="http://www.w3.org/2000/svg">
<path d="M9.92699 12.0793L9.92719 12.0794L12.5015 13.6157C12.6946 13.7407 12.8992 13.7834 13.0834 13.7834C13.4651 13.7834 13.8419 13.5917 14.0542 13.2318C14.381 12.692 14.1994 12.0011 13.6628 11.6863L11.0813 10.1457L11.0813 10.1457L11.0761 10.1427C11.0524 10.1289 10.98 10.0637 10.9087 9.93831C10.8377 9.81357 10.8167 9.71505 10.8167 9.68342V6.26675C10.8167 5.64894 10.3096 5.14175 9.69175 5.14175C9.07394 5.14175 8.56675 5.64894 8.56675 6.26675V9.68342C8.56675 10.6007 9.13391 11.6055 9.92699 12.0793ZM2.16675 10.0001C2.16675 5.68456 5.68456 2.16675 10.0001 2.16675C14.3156 2.16675 17.8334 5.68456 17.8334 10.0001C17.8334 14.3156 14.3156 17.8334 10.0001 17.8334C5.68456 17.8334 2.16675 14.3156 2.16675 10.0001Z" fill="black" stroke="black"/>
</svg>