<svg width="28" height="28" viewBox="0 0 28 28" fill="none" xmlns="http://www.w3.org/2000/svg">
<path d="M14.0002 2.33331C7.57183 2.33331 2.3335 7.57165 2.3335 14C2.3335 20.4283 7.57183 25.6666 14.0002 25.6666C20.4285 25.6666 25.6668 20.4283 25.6668 14C25.6668 7.57165 20.4285 2.33331 14.0002 2.33331ZM17.9202 16.6833C18.2585 17.0216 18.2585 17.5816 17.9202 17.92C17.7452 18.095 17.5235 18.1766 17.3018 18.1766C17.0802 18.1766 16.8585 18.095 16.6835 17.92L14.0002 15.2366L11.3168 17.92C11.1418 18.095 10.9202 18.1766 10.6985 18.1766C10.4768 18.1766 10.2552 18.095 10.0802 17.92C9.74183 17.5816 9.74183 17.0216 10.0802 16.6833L12.7635 14L10.0802 11.3166C9.74183 10.9783 9.74183 10.4183 10.0802 10.08C10.4185 9.74165 10.9785 9.74165 11.3168 10.08L14.0002 12.7633L16.6835 10.08C17.0218 9.74165 17.5818 9.74165 17.9202 10.08C18.2585 10.4183 18.2585 10.9783 17.9202 11.3166L15.2368 14L17.9202 16.6833Z" fill="#EAEAEA"/>
</svg>