<svg width="25" height="25" viewBox="0 0 25 25" fill="none" xmlns="http://www.w3.org/2000/svg">
<rect opacity="0.08" width="25" height="25" rx="3" fill="#fff"/>
<g clip-path="url(#clip0_1076_4075)">
<path d="M12.1513 4.03311C11.4938 4.1792 10.9825 4.63076 10.7667 5.25498C10.6604 5.57041 10.6604 6.08174 10.7667 6.39717C10.9526 6.9417 11.3644 7.35342 11.9222 7.55928C12.2044 7.66221 12.7954 7.66221 13.0776 7.55928C13.6354 7.35342 14.0472 6.9417 14.2331 6.39717C14.3394 6.08174 14.3394 5.57041 14.2331 5.25498C14.0438 4.71045 13.6255 4.28877 13.0776 4.09619C12.8552 4.01982 12.3638 3.98662 12.1513 4.03311Z" fill="#282F6C"/>
<path d="M10.2556 7.89482C10.0165 8.104 9.92022 8.21025 9.76416 8.44932C9.44873 8.9208 9.3458 9.32256 9.3458 10.0763C9.3458 10.664 9.38564 10.7901 9.61143 10.9063C9.73428 10.9694 9.804 10.9728 10.8731 10.9728H12.0021V12.0452V13.1144L11.8294 13.194C11.6103 13.2937 11.2782 13.6224 11.172 13.8448C11.1288 13.9345 11.069 14.1138 11.0392 14.2399L10.986 14.4757L9.96006 14.7978C9.39229 14.9737 8.90752 15.1198 8.88096 15.1198C8.85439 15.1231 8.79463 15.0534 8.74814 14.9671C8.55557 14.6052 8.14385 14.2665 7.72549 14.1204C7.41006 14.0142 6.89873 14.0142 6.5833 14.1204C6.03877 14.3063 5.62705 14.7181 5.42119 15.2759C5.31826 15.5581 5.31826 16.1491 5.42119 16.4313C5.62705 16.9892 6.03877 17.4009 6.5833 17.5868C6.89873 17.6931 7.41006 17.6931 7.72549 17.5868C8.29326 17.3909 8.71494 16.956 8.89756 16.3782C8.97061 16.1458 8.97725 16.1392 9.1167 16.096C9.19639 16.0728 9.71768 15.9134 10.2722 15.7407L11.2815 15.4253L11.4741 15.5979C12.0917 16.1591 12.9251 16.1591 13.5261 15.6013L13.7187 15.4253L14.8741 15.7839L16.0296 16.1425L16.1026 16.3782C16.2853 16.9526 16.7103 17.3909 17.2714 17.5835C17.5901 17.6931 18.1015 17.6931 18.4169 17.5868C18.9614 17.4009 19.3731 16.9892 19.579 16.4313C19.6819 16.1491 19.6819 15.5581 19.579 15.2759C19.3731 14.7181 18.9614 14.3063 18.4169 14.1204C18.1015 14.0142 17.5901 14.0142 17.2747 14.1204C16.8563 14.2665 16.4446 14.6052 16.2521 14.9671C16.2056 15.0534 16.1558 15.1231 16.1358 15.1231C16.1192 15.1231 15.6312 14.9771 15.0567 14.7978L14.0142 14.4724L13.961 14.2433C13.9312 14.1138 13.8714 13.9345 13.8249 13.8448C13.7153 13.619 13.3899 13.2937 13.1741 13.194L12.9981 13.1144V12.0452V10.9728H14.1271C15.1962 10.9728 15.2659 10.9694 15.3888 10.9063C15.4751 10.8632 15.5448 10.7935 15.5913 10.7005C15.6577 10.571 15.661 10.5278 15.6444 9.96338C15.6345 9.57822 15.6112 9.30264 15.578 9.19639C15.4319 8.69502 15.2261 8.35635 14.8542 8.0044L14.5886 7.74873L14.3993 7.91143C14.0175 8.23682 13.7253 8.39951 13.2737 8.53565C13.0181 8.61533 12.9218 8.62529 12.5167 8.62861C12.1282 8.62861 12.0087 8.61865 11.7862 8.55557C11.3911 8.44268 11.0259 8.2501 10.7005 7.98779L10.4149 7.75537L10.2556 7.89482Z" fill="#282F6C"/>
<path d="M4.90977 17.9221C4.6707 18.1312 4.57441 18.2375 4.41836 18.4766C4.10293 18.948 4 19.3498 4 20.1035C4 20.6912 4.03984 20.8174 4.26562 20.9336C4.3918 21 4.45488 21 7.1543 21C9.85371 21 9.9168 21 10.043 20.9336C10.1293 20.8904 10.199 20.8207 10.2455 20.7277C10.3119 20.5982 10.3152 20.5551 10.2986 19.9906C10.2887 19.6055 10.2654 19.3299 10.2322 19.2236C10.0861 18.7223 9.88027 18.3836 9.5084 18.0316L9.24277 17.776L9.05351 17.9387C8.67168 18.2641 8.37949 18.4268 7.92793 18.5629C7.67227 18.6426 7.57598 18.6525 7.1709 18.6559C6.78242 18.6559 6.66289 18.6459 6.44043 18.5828C6.04531 18.4699 5.68008 18.2773 5.35469 18.015L5.06914 17.7826L4.90977 17.9221Z" fill="#282F6C"/>
<path d="M15.6012 17.9221C15.3621 18.1312 15.2658 18.2375 15.1098 18.4766C14.7943 18.948 14.6914 19.3498 14.6914 20.1035C14.6914 20.6912 14.7312 20.8174 14.957 20.9336C15.0832 21 15.1463 21 17.8457 21C20.5451 21 20.6082 21 20.7344 20.9336C20.8207 20.8904 20.8904 20.8207 20.9369 20.7277C21.0033 20.5982 21.0066 20.5551 20.99 19.9906C20.9801 19.6055 20.9568 19.3299 20.9236 19.2236C20.7775 18.7223 20.5717 18.3836 20.1998 18.0316L19.9342 17.776L19.7449 17.9387C19.3631 18.2641 19.0709 18.4268 18.6193 18.5629C18.3637 18.6426 18.2674 18.6525 17.8623 18.6559C17.4738 18.6559 17.3543 18.6459 17.1318 18.5828C16.7367 18.4699 16.3715 18.2773 16.0461 18.015L15.7605 17.7826L15.6012 17.9221Z" fill="#282F6C"/>
</g>
<defs>
<clipPath id="clip0_1076_4075">
<rect width="17" height="17" fill="white" transform="translate(4 4)"/>
</clipPath>
</defs>
</svg>