<svg width="45" height="45" viewBox="0 0 45 45" fill="none" xmlns="http://www.w3.org/2000/svg">
<rect opacity="0.08" width="45" height="45" rx="8" fill="#282F6C"/>
<path d="M27 22.9V27.1C27 30.6 25.6 32 22.1 32H17.9C14.4 32 13 30.6 13 27.1V22.9C13 19.4 14.4 18 17.9 18H22.1C25.6 18 27 19.4 27 22.9Z" fill="#282F6C"/>
<path d="M28.1 12H23.9C20.8169 12 19.371 13.0941 19.0698 15.739C19.0067 16.2923 19.465 16.75 20.0219 16.75H22.1C26.3 16.75 28.25 18.7 28.25 22.9V24.9781C28.25 25.535 28.7077 25.9933 29.261 25.9303C31.9059 25.629 33 24.1831 33 21.1V16.9C33 13.4 31.6 12 28.1 12Z" fill="#282F6C"/>
</svg>