<svg width="129" height="129" viewBox="0 0 129 129" fill="none" xmlns="http://www.w3.org/2000/svg">
<path d="M128.924 56.0866L124.732 39.8666C124.533 39.0976 123.964 38.4783 123.215 38.2156C122.466 37.9528 121.635 38.0803 120.999 38.5559L107.585 48.5913C107.206 48.8745 106.92 49.2637 106.764 49.7094L100.457 67.6667C98.7968 66.1363 96.9888 64.7637 95.0566 63.5739L97.3703 43.656C103.24 35.8003 105.633 27.9127 104.479 20.2016C102.699 8.31143 93.1064 1.35373 92.699 1.06323C91.8447 0.454511 90.6922 0.475927 89.861 1.11765C89.0301 1.75913 88.7172 2.86848 89.0898 3.84959L90.2065 6.78661C92.0193 11.5568 90.2054 17.0008 85.8943 19.7307C79.0517 24.0636 76.6808 32.764 80.3792 39.9694L81.5695 42.2884L80.6292 58.614C79.3598 58.4739 78.0709 58.3996 76.765 58.3996C74.0376 58.3996 71.3414 58.7201 68.7226 59.3368L68.2993 57.4338C68.9413 57.0156 69.4951 56.4658 69.9186 55.8002C70.6989 54.5736 70.9549 53.1166 70.6395 51.6978C70.3245 50.2786 69.4752 49.0672 68.2489 48.2869C67.6216 47.8878 66.9338 47.6275 66.222 47.5091L65.6526 44.9462C65.4137 43.8709 65.4676 42.7857 65.801 41.9694C67.1235 38.728 66.3606 34.4043 63.9859 31.6879L51.1564 17.0104C50.5832 16.3545 49.6961 16.064 48.8465 16.253C47.9957 16.442 47.3164 17.0807 47.0748 17.9179L41.6704 36.6484C40.6706 40.1145 41.8104 44.3544 44.3816 46.7303C45.0292 47.3287 45.5376 48.2887 45.7767 49.3643L46.3464 51.9276C45.7518 52.3368 45.239 52.8634 44.8399 53.4902C44.0594 54.7168 43.8034 56.1738 44.1186 57.5926C44.4335 59.0118 45.2829 60.2232 46.5094 61.0038C47.1758 61.4278 47.91 61.6964 48.6691 61.8035L50.5429 70.2318C48.9102 72.0801 47.4706 74.0996 46.2552 76.2616C45.6079 76.1517 44.9571 76.0701 44.3048 76.0089L33.665 59.5659C33.3216 59.0355 32.7819 58.6629 32.1641 58.5308C31.5471 58.3981 30.9014 58.517 30.371 58.8601L4.77301 75.4281C3.6687 76.1426 3.35275 77.6176 4.06729 78.7219L13.5475 93.374C5.78183 95.2702 0 102.282 0 110.622C0 120.413 7.96577 128.379 17.7572 128.379H108.224C118.016 128.379 125.981 120.413 125.981 110.622C125.981 103.611 121.843 97.4602 115.831 94.5899L128.865 57.4719C129.022 57.0262 129.043 56.5442 128.924 56.0866ZM121.01 44.4988L121.637 46.9286C121.174 46.8717 120.716 46.7661 120.268 46.6089C119.82 46.4517 119.396 46.2473 118.999 46.0027L121.01 44.4988ZM110.145 54.4575C111.422 55.3466 112.774 56.1143 114.18 56.7581L107.306 76.3349C106.373 74.6695 105.307 73.0872 104.123 71.6037L110.145 54.4575ZM88.443 23.7557C92.9207 20.9202 95.5295 16.054 95.6613 10.9834C97.4778 13.5705 99.1707 16.9219 99.7671 20.9074C100.7 27.1394 98.7447 33.6421 93.9603 40.2523L85.5032 39.5187L84.6179 37.794C82.052 32.796 83.6965 26.7612 88.443 23.7557ZM86.0218 47.8377L86.2221 44.363L92.4292 44.9014L92.0273 48.359L86.0218 47.8377ZM91.4776 53.0927L90.533 61.2247C88.8681 60.5092 87.1374 59.9188 85.3518 59.4666L85.7476 52.5956L91.4776 53.0927ZM47.6132 43.2302C46.3577 42.0699 45.7442 39.7094 46.2466 37.9684L49.0627 28.2077L50.752 35.8081C50.9987 36.9185 51.9831 37.6736 53.0748 37.6736C53.2459 37.6736 53.4197 37.655 53.5938 37.6164C54.8783 37.3309 55.6878 36.0586 55.4021 34.7744L53.7127 27.1744L60.3981 34.8228C61.5906 36.1871 62.035 38.5857 61.3888 40.1692C60.6878 41.887 60.55 43.9505 61.001 45.9793L61.4847 48.1564L50.9095 50.5069L50.4255 48.3297C49.9745 46.3005 48.976 44.4895 47.6132 43.2302ZM50.035 56.9712C50.0274 56.9727 50.0201 56.9758 50.012 56.9775L49.5782 57.074C49.3507 57.1239 49.1745 57.0531 49.0665 56.9841C48.9581 56.9151 48.819 56.7855 48.7686 56.5585C48.7183 56.332 48.7896 56.1554 48.8586 56.0473C48.9274 55.939 49.0571 55.7997 49.2839 55.749L49.6187 55.6747C49.6187 55.6747 49.6187 55.6747 49.619 55.6747L65.1796 52.2161C65.2331 52.2043 65.2835 52.1992 65.3311 52.1992C65.4858 52.1992 65.6082 52.2532 65.6911 52.3061C65.7995 52.3746 65.9385 52.5046 65.9889 52.7316C66.0393 52.9584 65.968 53.135 65.899 53.2428C65.8304 53.3512 65.7004 53.4905 65.4737 53.5411L50.035 56.9712ZM64.156 60.7495C62.0375 61.5684 59.9937 62.5906 58.0569 63.8191C56.8365 64.5931 55.6689 65.4394 54.5598 66.3512L53.3935 61.1058L63.7241 58.8095L64.156 60.7495ZM9.35957 78.1333L30.9588 64.1529L38.6756 76.0792C34.0898 76.6292 29.7718 78.3694 26.0404 81.1936C22.5332 83.8476 19.7302 87.3876 17.9275 91.3755L9.35957 78.1333ZM121.218 110.622C121.218 117.787 115.388 123.615 108.224 123.615H17.7572C10.5929 123.615 4.76394 117.787 4.76394 110.622C4.76394 103.457 10.5931 97.6287 17.7572 97.6287C18.0719 97.6287 18.4145 97.6439 18.8056 97.6751C19.9305 97.7645 20.956 97.0583 21.277 95.982C23.9709 86.957 32.4347 80.6536 41.8596 80.6536C43.5703 80.6536 45.2872 80.8605 46.9614 81.2684C48.0448 81.5317 49.1657 81.0096 49.6603 80.0104C54.8004 69.6191 65.1865 63.164 76.7647 63.164C93.4315 63.164 106.991 76.7234 106.991 93.3899C106.991 93.9253 106.972 94.5025 106.935 95.1538C106.861 96.4554 107.846 97.5748 109.147 97.666C115.915 98.1395 121.218 103.831 121.218 110.622ZM111.721 91.9162C111.589 88.7358 111.031 85.6632 110.101 82.7547L118.675 58.3353C120.175 58.712 121.709 58.9541 123.259 59.0579L111.721 91.9162ZM112.899 50.5658L115.028 48.9735C116.095 49.9022 117.331 50.6265 118.69 51.104C119.901 51.5293 121.16 51.743 122.421 51.743C122.573 51.743 122.726 51.7346 122.878 51.7283L123.544 54.3046C119.729 54.0435 116.038 52.7472 112.899 50.5658Z" fill="black"/>
</svg>
