<svg width="116" height="106" viewBox="0 0 116 106" fill="none" xmlns="http://www.w3.org/2000/svg">
<path d="M83.5351 99.327C82.8926 98.9361 82.3327 98.4119 81.8877 97.7768C81.6822 97.4838 81.5086 97.1741 81.3647 96.854H8.3513V24.8879H107.457V71.8792C109.572 72.0703 111.348 73.4599 112.093 75.3627C112.753 75.001 113.488 74.7775 114.261 74.7093C114.784 74.6638 115.304 74.6963 115.808 74.7958V6.95961C115.808 3.12207 112.686 0 108.849 0H6.95931C3.12207 0 0 3.12207 0 6.95961V98.2463C0 102.084 3.12207 105.206 6.95931 105.206H82.9008C82.3082 104.006 82.1676 102.651 82.5164 101.347C82.7175 100.598 83.0653 99.9138 83.5351 99.327ZM99.8142 11.6866C99.8142 10.2674 100.965 9.11668 102.384 9.11668H104.953C106.373 9.11668 107.523 10.2671 107.523 11.6866V14.599C107.523 16.0181 106.373 17.1686 104.953 17.1686H102.384C100.964 17.1686 99.8142 16.0181 99.8142 14.599V11.6866ZM87.8655 11.6866C87.8655 10.2674 89.0159 9.11668 90.4351 9.11668H93.0049C94.4244 9.11668 95.5745 10.2671 95.5745 11.6866V14.599C95.5745 16.0181 94.4241 17.1686 93.0049 17.1686H90.4351C89.0159 17.1686 87.8655 16.0181 87.8655 14.599V11.6866ZM75.9164 11.6866C75.9164 10.2674 77.0671 9.11668 78.486 9.11668H81.0556C82.475 9.11668 83.6255 10.2671 83.6255 11.6866V14.599C83.6255 16.0181 82.475 17.1686 81.0556 17.1686H78.486C77.0671 17.1686 75.9164 16.0181 75.9164 14.599V11.6866Z" fill="white"/>
</svg>
