<svg width="54" height="55" viewBox="0 0 54 55" fill="none" xmlns="http://www.w3.org/2000/svg">
<g clip-path="url(#clip0_125_94)">
<path d="M14.2321 29.7584H20.1514V54.1271C20.1514 54.6082 20.5413 54.998 21.0224 54.998H31.0587C31.5398 54.998 31.9297 54.6082 31.9297 54.1271V29.8732H38.7344C39.1768 29.8732 39.5491 29.5412 39.5996 29.1017L40.6331 20.1304C40.6615 19.8836 40.5833 19.6364 40.4181 19.4512C40.2528 19.2659 40.0163 19.1598 39.768 19.1598H31.93V13.5361C31.93 11.8409 32.8428 10.9813 34.6433 10.9813C34.8999 10.9813 39.768 10.9813 39.768 10.9813C40.2492 10.9813 40.639 10.5912 40.639 10.1103V1.87546C40.639 1.39434 40.2492 1.00449 39.768 1.00449H32.7054C32.6556 1.00205 32.5449 0.998047 32.3819 0.998047C31.1564 0.998047 26.8969 1.23861 23.5322 4.33403C19.8041 7.76425 20.3223 11.8714 20.4461 12.5835V19.1596H14.2321C13.751 19.1596 13.3612 19.5495 13.3612 20.0306V28.8873C13.3612 29.3684 13.751 29.7584 14.2321 29.7584Z" fill="white"/>
</g>
<defs>
<clipPath id="clip0_125_94">
<rect width="54" height="54" fill="white" transform="translate(0 0.998047)"/>
</clipPath>
</defs>
</svg>
