<svg width="45" height="45" viewBox="0 0 45 45" fill="none" xmlns="http://www.w3.org/2000/svg">
<rect opacity="0.08" width="45" height="45" rx="8" fill="#282F6C"/>
<path d="M31.5999 14.1V16.3C31.5999 17.1 31.0999 18.1 30.5999 18.6L26.2999 22.4C25.6999 22.9 25.2999 23.9 25.2999 24.7V29C25.2999 29.6 24.8999 30.4 24.3999 30.7L22.9999 31.6C21.6999 32.4 19.8999 31.5 19.8999 29.9V24.6C19.8999 23.9 19.4999 23 19.0999 22.5L18.6299 22.01C18.3199 21.68 18.2599 21.18 18.5099 20.79L23.6299 12.57C23.8099 12.28 24.1299 12.1 24.4799 12.1H29.5999C30.6999 12.1 31.5999 13 31.5999 14.1Z" fill="#282F6C"/>
<path d="M21.3499 13.63L17.7999 19.32C17.4599 19.87 16.6799 19.95 16.2299 19.48L15.2999 18.5C14.7999 18 14.3999 17.1 14.3999 16.5V14.2C14.3999 13 15.2999 12.1 16.3999 12.1H20.4999C21.2799 12.1 21.7599 12.96 21.3499 13.63Z" fill="#282F6C"/>
</svg>