<svg width="25" height="25" viewBox="0 0 25 25" fill="none" xmlns="http://www.w3.org/2000/svg">
<rect opacity="0.08" width="25" height="25" rx="3" fill="#282F6C"/>
<path d="M7.68534 5.4145C7.40644 5.47095 6.92499 5.71333 6.67265 5.91587C6.13476 6.35083 5.80937 6.99497 5.76952 7.7022C5.74296 8.16372 5.81269 8.49575 6.03183 8.94731C6.17792 9.24946 6.23769 9.32915 6.50331 9.59478C6.75566 9.84712 6.85527 9.92349 7.12089 10.053C7.52265 10.2489 7.8082 10.3186 8.2332 10.3186C8.68476 10.3186 9.10312 10.2157 9.43183 10.0264C9.56132 9.95005 9.57128 9.93345 9.64433 9.65454C9.79042 9.09009 10.1623 8.46919 10.5641 8.1272L10.75 7.96782L10.7301 7.66899C10.6836 6.98833 10.3549 6.34419 9.82695 5.91587C9.57128 5.70669 9.09648 5.47427 8.79765 5.41118C8.50878 5.35142 7.97089 5.35142 7.68534 5.4145Z" fill="#282F6C"/>
<path d="M16.1854 5.41118C15.9031 5.47427 15.425 5.71333 15.1727 5.91587C14.6746 6.32095 14.3393 6.94517 14.2729 7.60259L14.2529 7.80513L14.3957 7.90142C15.0299 8.31646 15.5645 9.17642 15.6707 9.93345C15.6906 10.0928 15.7006 10.1061 15.8301 10.1559C16.1389 10.2721 16.4045 10.3186 16.7498 10.3186C17.1914 10.3186 17.4703 10.2522 17.8787 10.053C18.1443 9.92349 18.2439 9.84712 18.4963 9.59478C18.7619 9.32915 18.8217 9.24946 18.9678 8.94731C19.1869 8.49575 19.2566 8.16372 19.2301 7.7022C19.1703 6.64634 18.473 5.76646 17.4438 5.44439C17.1947 5.3647 16.4742 5.34478 16.1854 5.41118Z" fill="#282F6C"/>
<path d="M12.2111 7.95129C11.6002 8.06086 11.0258 8.40949 10.6572 8.89758C10.448 9.17648 10.3418 9.37902 10.2355 9.71105C10.1725 9.92355 10.1592 10.0298 10.1592 10.4249C10.1592 10.9362 10.2057 11.1321 10.4148 11.5472C11.1254 12.955 13.0113 13.3435 14.2133 12.3275C15.133 11.5505 15.3754 10.3021 14.8143 9.22961C14.7113 9.03039 14.5984 8.88762 14.376 8.66516C14.0406 8.3298 13.7252 8.14055 13.2969 8.01769C13.0113 7.93801 12.4768 7.9048 12.2111 7.95129Z" fill="#282F6C"/>
<path d="M6.55324 10.5742C5.29484 10.8398 4.32531 11.8193 4.06632 13.0877C4.00324 13.4031 3.99992 13.5227 4.00656 14.8773L4.01652 16.3283L4.51457 16.4711C5.07238 16.6338 5.90578 16.8197 6.40714 16.8994C6.73917 16.9525 7.57257 17.0488 7.70539 17.0488C7.77511 17.0488 7.77843 17.0355 7.79503 16.3582C7.80832 15.7572 7.8216 15.6277 7.89796 15.3389C8.06398 14.7047 8.46906 14.0107 8.93722 13.5559C9.30246 13.2006 9.92667 12.8187 10.3351 12.6959C10.4114 12.6727 10.4745 12.6461 10.4745 12.6328C10.4745 12.6229 10.428 12.5697 10.3716 12.5133C9.97648 12.1381 9.62453 11.3645 9.55812 10.7203L9.53488 10.5078L8.18683 10.5111C7.01808 10.5111 6.80226 10.5211 6.55324 10.5742Z" fill="#282F6C"/>
<path d="M15.7072 10.5808C15.6973 10.624 15.6807 10.7402 15.6707 10.8398C15.6143 11.3412 15.3553 11.9355 15.0033 12.3705C14.8838 12.5199 14.7908 12.6428 14.7975 12.6494C14.8041 12.6527 14.8937 12.6892 14.9967 12.7258C15.8865 13.0545 16.6303 13.7252 17.0652 14.5918C17.3541 15.1695 17.4404 15.5646 17.4703 16.4412C17.4902 17.0687 17.4902 17.082 17.56 17.0654C17.5998 17.0588 17.7791 17.0422 17.9617 17.0322C18.9379 16.9691 20.0568 16.7135 20.7441 16.3947L20.9998 16.2752V14.8474C20.9998 13.5426 20.9932 13.3965 20.9301 13.0877C20.6744 11.8094 19.7016 10.8332 18.4299 10.5709C18.1676 10.5178 17.9717 10.5078 16.9258 10.5078H15.7205L15.7072 10.5808Z" fill="#282F6C"/>
<path d="M11.2282 13.101C10.4247 13.184 9.63447 13.609 9.1165 14.2332C8.87412 14.5221 8.57529 15.0998 8.47568 15.4717C8.40596 15.724 8.40264 15.8137 8.38936 17.3178L8.37939 18.8983L8.78779 19.0178C9.65771 19.2734 10.3915 19.4295 11.205 19.5391C11.8657 19.6287 13.32 19.6652 13.9077 19.6088C15.0067 19.4992 15.953 19.2768 16.6104 18.9713L16.8894 18.8418L16.8728 17.341C16.8562 15.6676 16.8462 15.5846 16.6271 15.0567C16.1622 13.951 15.1661 13.2205 13.9642 13.0977C13.569 13.0578 11.6101 13.0611 11.2282 13.101Z" fill="#282F6C"/>
</svg>