<svg width="25" height="25" viewBox="0 0 25 25" fill="none" xmlns="http://www.w3.org/2000/svg">
<rect opacity="0.08" width="25" height="25" rx="3" fill="#282F6C"/>
<g clip-path="url(#clip0_1076_4050)">
<path d="M16.6173 4.91312C16.5907 4.91976 16.4546 4.94301 16.3184 4.96293C14.6848 5.22855 13.3302 6.61312 13.0811 8.27328C12.7591 10.4082 14.1602 12.3772 16.3018 12.8022C16.6438 12.8719 17.4606 12.862 17.8126 12.7856C19.3864 12.4469 20.5585 11.2715 20.9237 9.67113C21.0001 9.33246 21.0001 8.42933 20.9237 8.09066C20.5651 6.51019 19.413 5.33812 17.879 4.99281C17.6233 4.93304 16.7534 4.87992 16.6173 4.91312ZM17.2481 6.39398C17.3975 6.48031 17.5138 6.66957 17.5138 6.83558C17.5138 6.91527 17.5304 6.95512 17.5602 6.95512C17.6499 6.95512 18.0782 7.19418 18.1579 7.29047C18.387 7.55941 18.2509 7.98441 17.9056 8.07738C17.7595 8.11722 17.61 8.08734 17.4407 7.98773C17.2747 7.88812 17.0057 7.86488 16.78 7.92797C16.6073 7.98109 16.4513 8.08402 16.4513 8.15043C16.4513 8.22347 16.6438 8.2932 17.1518 8.39945C17.962 8.57211 18.2509 8.7348 18.4501 9.13656C18.5431 9.32914 18.5597 9.39222 18.5597 9.61137C18.5597 9.83051 18.5431 9.89359 18.4501 10.0828C18.3206 10.3452 18.1247 10.5344 17.8325 10.6705C17.7196 10.7237 17.6034 10.7768 17.5735 10.7868C17.5304 10.8 17.5138 10.8399 17.5138 10.9262C17.5138 11.1852 17.2681 11.4375 17.0157 11.4375C16.76 11.4375 16.5177 11.1918 16.5177 10.9328C16.5177 10.8299 16.5044 10.8166 16.355 10.7635C16.1192 10.6805 15.8802 10.5078 15.8104 10.375C15.7374 10.2323 15.7507 10.0065 15.8436 9.88363C16.0196 9.64457 16.2587 9.60472 16.5509 9.75746C16.7766 9.87699 17.0157 9.90023 17.2515 9.83383C17.4241 9.7807 17.5802 9.67777 17.5802 9.61137C17.5802 9.53832 17.3876 9.46859 16.8862 9.36234C15.9565 9.16644 15.6378 8.9473 15.5016 8.40941C15.3423 7.79515 15.7274 7.22074 16.4612 6.97504C16.5011 6.96176 16.5177 6.92191 16.5177 6.83226C16.521 6.65961 16.6173 6.49691 16.77 6.40394C16.9294 6.30433 17.0854 6.30433 17.2481 6.39398Z" fill="#282F6C"/>
<path d="M8.78125 12.8519C8.2832 12.8984 7.60586 13.0876 7.21406 13.2835L6.98828 13.3964V16.1822V18.9679L7.28047 19.0376C7.97109 19.197 11.1055 19.9009 11.2715 19.9341C12.0717 20.0869 13.3168 20.1367 14.0605 20.0437C15.3057 19.8843 16.5508 19.4726 17.5867 18.8716C17.9852 18.6392 20.6148 16.7865 20.741 16.647C21.2822 16.056 20.9004 15.0831 20.0936 15.0001C19.7482 14.9636 19.6752 15.0035 18.1146 16.1025C16.574 17.1816 16.418 17.2712 15.8203 17.424C15.4152 17.5269 14.5951 17.5236 14.21 17.4173C13.848 17.321 10.8465 16.3216 10.7303 16.2619C10.6273 16.2087 10.5078 15.9896 10.5078 15.8535C10.5078 15.807 10.5377 15.7074 10.5709 15.631C10.6506 15.4583 10.8564 15.3388 11.0357 15.3654C11.1021 15.372 11.9488 15.6376 12.915 15.9531C14.4457 16.4511 14.7047 16.5242 14.8939 16.5242C15.2758 16.5275 15.6178 16.3117 15.7937 15.9564C15.8535 15.8369 15.8701 15.7472 15.8701 15.538C15.8701 15.2126 15.7738 15.0068 15.5348 14.7943C15.3688 14.6482 15.475 14.6847 10.8631 13.1773C10.5012 13.0578 10.0895 12.9382 9.95 12.9117C9.6877 12.8619 9.03691 12.8287 8.78125 12.8519Z" fill="#282F6C"/>
<path d="M4.25898 13.9311C4.18262 13.9709 4.10625 14.0473 4.06641 14.127C4 14.2531 4 14.3195 4 16.8496C4 19.3299 4.00332 19.4461 4.06309 19.5656C4.09961 19.6387 4.1793 19.7184 4.25898 19.7648C4.38184 19.8346 4.43164 19.8379 4.99277 19.8379C5.69004 19.8379 5.78965 19.8113 5.91914 19.5789L5.99219 19.4461V16.6537V13.8613H5.18867C4.45156 13.8646 4.37188 13.8713 4.25898 13.9311Z" fill="#282F6C"/>
</g>
<defs>
<clipPath id="clip0_1076_4050">
<rect width="17" height="17" fill="white" transform="translate(4 4)"/>
</clipPath>
</defs>
</svg>