<svg width="64" height="65" viewBox="0 0 64 65" fill="none" xmlns="http://www.w3.org/2000/svg">
<path d="M45.3333 59.6646H18.6667C11.3029 59.6646 5.33334 53.695 5.33334 46.3312V19.6646C5.33334 12.3008 11.3029 6.33122 18.6667 6.33122H45.3333C52.6971 6.33122 58.6667 12.3008 58.6667 19.6646V46.3312C58.6667 53.695 52.6971 59.6646 45.3333 59.6646Z" stroke="white" stroke-width="6" stroke-linecap="round" stroke-linejoin="round"/>
<path d="M42.6667 34.6782C42.9958 32.4589 42.6167 30.1923 41.5834 28.2008C40.55 26.2094 38.9151 24.5945 36.911 23.5858C34.907 22.5771 32.6359 22.226 30.4208 22.5824C28.2057 22.9388 26.1594 23.9847 24.5729 25.5711C22.9864 27.1576 21.9406 29.2039 21.5842 31.419C21.2277 33.6341 21.5788 35.9052 22.5875 37.9092C23.5962 39.9133 25.2112 41.5482 27.2026 42.5816C29.1941 43.6149 31.4607 43.994 33.68 43.6649C35.9438 43.3292 38.0396 42.2743 39.6579 40.6561C41.2761 39.0378 42.331 36.942 42.6667 34.6782Z" stroke="white" stroke-width="6" stroke-linecap="round" stroke-linejoin="round"/>
<path d="M46.6667 47.6646H46.6933" stroke="white" stroke-width="6" stroke-linecap="round" stroke-linejoin="round"/>
</svg>
