<svg width="50" height="50" viewBox="0 0 50 50" fill="none" xmlns="http://www.w3.org/2000/svg">
<rect opacity="0.08" width="50" height="50" rx="8" fill="#282F6C"/>
<path d="M29.5392 14.1667H20.4609C16.5176 14.1667 14.1667 16.5175 14.1667 20.4609V29.5284C14.1667 33.4825 16.5176 35.8334 20.4609 35.8334H29.5284C33.4717 35.8334 35.8226 33.4825 35.8226 29.5392V20.4609C35.8334 16.5175 33.4826 14.1667 29.5392 14.1667ZM30.4167 30.9259C28.5642 30.9259 26.8309 30.1242 25.4442 28.64C23.8734 30.0592 21.8259 30.9259 19.5834 30.9259C19.1392 30.9259 18.7709 30.5575 18.7709 30.1134C18.7709 29.6692 19.1392 29.3009 19.5834 29.3009C23.3426 29.3009 26.4517 26.3217 26.8526 22.5084H25.0001H19.5942C19.1501 22.5084 18.7817 22.14 18.7817 21.6959C18.7817 21.2517 19.1501 20.8942 19.5942 20.8942H24.1876V19.8867C24.1876 19.4425 24.5559 19.0742 25.0001 19.0742C25.4442 19.0742 25.8126 19.4425 25.8126 19.8867V20.8942H27.6434C27.6651 20.8942 27.6867 20.8834 27.7084 20.8834C27.7301 20.8834 27.7517 20.8942 27.7734 20.8942H30.4059C30.8501 20.8942 31.2184 21.2625 31.2184 21.7067C31.2184 22.1509 30.8501 22.5192 30.4059 22.5192H28.4776C28.3151 24.3717 27.6217 26.0725 26.5601 27.4592C27.6434 28.6617 28.9976 29.3117 30.4167 29.3117C30.8609 29.3117 31.2292 29.68 31.2292 30.1242C31.2292 30.5684 30.8609 30.9259 30.4167 30.9259Z" fill="#282F6C"/>
</svg>