<svg width="128" height="129" viewBox="0 0 128 129" fill="none" xmlns="http://www.w3.org/2000/svg">
<path d="M115.259 12.7404C98.2714 -4.24702 70.6335 -4.24702 53.6476 12.7398C38.6782 27.7102 36.9053 50.9559 48.3218 67.889L1.44178 114.77C-1.81516 118.027 -1.8127 123.304 1.44178 126.559C4.69503 129.813 9.97327 129.815 13.2296 126.559L60.1108 79.6771C77.0436 91.0927 100.288 89.3207 115.259 74.3503C132.245 57.3635 132.247 29.7278 115.259 12.7404ZM108.298 64.3722C107.372 61.8985 106.643 60.1619 106.643 60.1619C106.117 58.9054 104.849 58.2134 103.646 57.6053L95.4875 53.8492L91.5674 50.5438L85.2691 56.8082L87.9895 74.9929C85.935 75.2217 83.8624 75.2503 81.8037 75.0789L84.536 56.8082L78.2384 50.5438L74.3186 53.8492L66.1597 57.6056C64.9437 58.1415 63.8107 58.7414 63.1632 60.1622C63.1632 60.1622 62.2928 62.2354 61.246 65.0802C49.7294 52.6799 50.0006 33.2231 62.0649 21.1589C74.4104 8.8142 94.4972 8.81481 106.84 21.1589C118.676 32.9943 119.162 51.9498 108.298 64.3722Z" fill="white"/>
</svg>
