<svg width="244" height="337" viewBox="0 0 244 337" fill="none" xmlns="http://www.w3.org/2000/svg">
<path d="M-11.8011 216.677L54.3231 270.673C55.9865 268.858 57.9464 266.737 60.1101 264.435L-6.84637 209.76C-8.66936 212.341 -10.3552 214.685 -11.8011 216.677Z" fill="white"/>
<path d="M41.543 234.797L75.522 193.185C76.3295 192.196 77.4086 191.465 78.6265 191.082L95.7476 185.699L113.306 164.196C115.22 161.852 115.431 158.567 113.838 155.999L112.911 154.609L99.5119 154.045C96.6124 153.923 94.1387 151.903 93.4385 149.086L90.2076 136.069L88.6605 135.439C85.826 134.392 82.6489 135.255 80.7348 137.599L63.1764 159.102L61.3241 176.953C61.1923 178.225 60.6917 179.427 59.8842 180.416L25.9045 222.028L41.5424 234.797L41.543 234.797Z" fill="white"/>
<path d="M-18.3594 225.798C-35.5933 251.51 -16.7189 266.95 -5.33542 276.246C6.04803 285.541 24.9497 300.948 46.6975 278.922L-18.3594 225.798Z" fill="white"/>
<path d="M129.864 110.677C126.771 108.152 122.2 108.613 119.674 111.706C117.149 114.799 117.61 119.37 120.703 121.896C123.796 124.422 128.368 123.96 130.893 120.867C133.419 117.774 132.957 113.203 129.864 110.677Z" fill="white"/>
<path d="M170.498 60.9165C129.989 27.838 70.1209 33.8836 37.0429 74.3916C19.6437 95.699 19.461 119.123 19.2837 141.777C19.228 148.881 19.1707 156.226 18.588 163.487C17.9421 171.538 8.50731 187.189 -0.454188 200.503L15.7731 213.754L48.5148 173.657L50.3677 155.805C50.4988 154.534 50.9994 153.332 51.807 152.343L70.6028 129.326C76.098 122.596 85.2466 120.148 93.3687 123.233C93.4177 123.251 98.2249 125.209 98.2249 125.209C100.16 125.999 101.602 127.662 102.105 129.691L104.957 141.181L116.785 141.679C118.872 141.766 120.789 142.846 121.952 144.584C121.952 144.584 124.832 148.904 124.859 148.947C129.506 156.289 128.936 165.741 123.44 172.472L104.645 195.489C103.837 196.478 102.758 197.209 101.541 197.592L84.4189 202.976L51.6772 243.072L67.9045 256.323C79.1585 244.881 92.6069 232.508 100.367 230.266C107.364 228.244 114.551 226.719 121.499 225.244C143.66 220.542 166.575 215.68 183.974 194.373C217.051 153.863 211.007 93.9951 170.498 60.9165V60.9165ZM112.428 132.03C103.748 124.941 102.453 112.113 109.541 103.433C116.629 94.752 129.457 93.4567 138.138 100.545C146.819 107.633 148.114 120.462 141.025 129.142C133.937 137.823 121.109 139.118 112.428 132.03Z" fill="white"/>
</svg>
