<svg width="54" height="61" viewBox="0 0 54 61" fill="none" xmlns="http://www.w3.org/2000/svg">
<g clip-path="url(#clip0_125_118)">
<path d="M12.5698 20.0527H1.72921C1.24809 20.0527 0.858246 20.4805 0.858246 21.0081V59.2073C0.858246 59.735 1.24809 60.1626 1.72921 60.1626H12.5698C13.0509 60.1626 13.4408 59.735 13.4408 59.2073V21.0081C13.4408 20.4805 13.0509 20.0527 12.5698 20.0527Z" fill="white"/>
<path d="M7.15343 1.06299C3.20899 1.06299 0 4.57897 0 8.90067C0 13.2243 3.20899 16.7416 7.15343 16.7416C11.0947 16.7416 14.3011 13.2241 14.3011 8.90067C14.3013 4.57897 11.0947 1.06299 7.15343 1.06299Z" fill="white"/>
<path d="M40.1436 19.1035C35.7896 19.1035 32.5711 21.1565 30.6189 23.4892V21.0082C30.6189 20.4807 30.229 20.0529 29.7479 20.0529H19.3661C18.885 20.0529 18.4952 20.4807 18.4952 21.0082V59.2075C18.4952 59.7352 18.885 60.1628 19.3661 60.1628H30.183C30.6642 60.1628 31.054 59.7352 31.054 59.2075V40.3077C31.054 33.939 32.6312 31.4578 36.6787 31.4578C41.0869 31.4578 41.4372 35.4354 41.4372 40.6354V59.2077C41.4372 59.7354 41.827 60.163 42.3081 60.163H53.129C53.6102 60.163 54 59.7354 54 59.2077V38.2547C54 28.7846 52.3537 19.1035 40.1436 19.1035Z" fill="white"/>
</g>
<defs>
<clipPath id="clip0_125_118">
<rect width="54" height="59.2302" fill="white" transform="translate(0 0.998047)"/>
</clipPath>
</defs>
</svg>
