<svg width="50" height="50" viewBox="0 0 50 50" fill="none" xmlns="http://www.w3.org/2000/svg">
<rect opacity="0.08" width="50" height="50" rx="8" fill="#282F6C"/>
<path d="M33.6667 19.3125C35.312 19.3125 36.6458 17.9787 36.6458 16.3334C36.6458 14.688 35.312 13.3542 33.6667 13.3542C32.0213 13.3542 30.6875 14.688 30.6875 16.3334C30.6875 17.9787 32.0213 19.3125 33.6667 19.3125Z" fill="#282F6C"/>
<path d="M32.6267 20.8292C30.9259 20.4609 29.5392 19.0742 29.1709 17.3734C29.0301 16.7125 29.0192 16.0734 29.1384 15.4667C29.2792 14.795 28.7809 14.1667 28.0876 14.1667H19.5834C16.5934 14.1667 14.1667 16.5934 14.1667 19.5834V27.1125C14.1667 30.1025 16.5934 32.5292 19.5834 32.5292H21.2084C21.5117 32.5292 21.9017 32.7242 22.0751 32.9625L23.7001 35.1184C24.4151 36.0717 25.5851 36.0717 26.3001 35.1184L27.9251 32.9625C28.1309 32.6917 28.4451 32.5292 28.7917 32.5292H30.4276C33.4176 32.5292 35.8334 30.1134 35.8334 27.1234V21.9125C35.8334 21.23 35.2051 20.7317 34.5334 20.8617C33.9267 20.97 33.2876 20.97 32.6267 20.8292ZM20.6667 25C20.0601 25 19.5834 24.5125 19.5834 23.9167C19.5834 23.3209 20.0601 22.8334 20.6667 22.8334C21.2626 22.8334 21.7501 23.3209 21.7501 23.9167C21.7501 24.5125 21.2734 25 20.6667 25ZM25.0001 25C24.3934 25 23.9167 24.5125 23.9167 23.9167C23.9167 23.3209 24.3934 22.8334 25.0001 22.8334C25.5959 22.8334 26.0834 23.3209 26.0834 23.9167C26.0834 24.5125 25.6067 25 25.0001 25ZM29.3334 25C28.7267 25 28.2501 24.5125 28.2501 23.9167C28.2501 23.3209 28.7267 22.8334 29.3334 22.8334C29.9292 22.8334 30.4167 23.3209 30.4167 23.9167C30.4167 24.5125 29.9401 25 29.3334 25Z" fill="#282F6C"/>
</svg>