<svg width="50" height="50" viewBox="0 0 50 50" fill="none" xmlns="http://www.w3.org/2000/svg">
<rect opacity="0.08" width="50" height="50" rx="8" fill="#282F6C"/>
<path d="M33.8724 27.2317L32.6482 25.195C32.3774 24.7508 32.1391 23.895 32.1391 23.375V21.3492C32.1391 17.4167 28.9432 14.2208 25.0216 14.2208C21.0891 14.2317 17.8932 17.4167 17.8932 21.3492V23.3642C17.8932 23.8842 17.6549 24.74 17.3949 25.1842L16.1707 27.2208C15.7049 28.0117 15.5966 28.9108 15.8891 29.6908C16.1816 30.4817 16.8424 31.11 17.7091 31.3917C18.8791 31.7817 20.0599 32.0633 21.2624 32.2692C21.3816 32.2908 21.5007 32.3017 21.6199 32.3233C21.7716 32.345 21.9341 32.3667 22.0966 32.3883C22.3782 32.4317 22.6599 32.4642 22.9524 32.4858C23.6349 32.5508 24.3282 32.5833 25.0216 32.5833C25.7041 32.5833 26.3866 32.5508 27.0582 32.4858C27.3074 32.4642 27.5566 32.4425 27.7949 32.41C27.9899 32.3883 28.1849 32.3667 28.3799 32.3342C28.4991 32.3233 28.6182 32.3017 28.7374 32.28C29.9507 32.085 31.1532 31.7817 32.3232 31.3917C33.1574 31.11 33.7966 30.4817 34.0999 29.68C34.4032 28.8675 34.3166 27.9792 33.8724 27.2317ZM25.8124 22.8333C25.8124 23.2883 25.4441 23.6567 24.9891 23.6567C24.5341 23.6567 24.1657 23.2883 24.1657 22.8333V19.475C24.1657 19.02 24.5341 18.6517 24.9891 18.6517C25.4441 18.6517 25.8124 19.02 25.8124 19.475V22.8333Z" fill="#282F6C"/>
<path d="M28.0659 33.6775C27.6109 34.9341 26.4084 35.8333 25.0001 35.8333C24.1442 35.8333 23.2992 35.4866 22.7034 34.8691C22.3567 34.5441 22.0967 34.1108 21.9451 33.6666C22.0859 33.6883 22.2267 33.6991 22.3784 33.7208C22.6276 33.7533 22.8876 33.7858 23.1476 33.8075C23.7651 33.8616 24.3934 33.8941 25.0217 33.8941C25.6392 33.8941 26.2567 33.8616 26.8634 33.8075C27.0909 33.7858 27.3184 33.775 27.5351 33.7425C27.7084 33.7208 27.8817 33.6991 28.0659 33.6775Z" fill="#282F6C"/>
</svg>