<svg width="45" height="45" viewBox="0 0 45 45" fill="none" xmlns="http://www.w3.org/2000/svg">
<rect opacity="0.08" width="45" height="45" rx="8" fill="#282F6C"/>
<path d="M22.5 31C27.7467 31 32 26.7467 32 21.5C32 16.2533 27.7467 12 22.5 12C17.2533 12 13 16.2533 13 21.5C13 26.7467 17.2533 31 22.5 31Z" fill="#282F6C"/>
<path d="M32.3001 32.0001C32.1201 32.0001 31.9401 31.9301 31.8101 31.8001L29.9501 29.9401C29.6801 29.6701 29.6801 29.2301 29.9501 28.9501C30.2201 28.6801 30.6601 28.6801 30.9401 28.9501L32.8001 30.8101C33.0701 31.0801 33.0701 31.5201 32.8001 31.8001C32.6601 31.9301 32.4801 32.0001 32.3001 32.0001Z" fill="#282F6C"/>
</svg>