<svg width="20" height="20" viewBox="0 0 20 20" fill="none" xmlns="http://www.w3.org/2000/svg">
<path d="M2.16675 9.99996C2.16675 5.68443 5.68456 2.16663 10.0001 2.16663C14.3156 2.16663 17.8334 5.68443 17.8334 9.99996C17.8334 14.3155 14.3156 17.8333 10.0001 17.8333C5.68456 17.8333 2.16675 14.3155 2.16675 9.99996ZM11.1251 13.3333V11.125H13.3334C13.9512 11.125 14.4584 10.6178 14.4584 9.99996C14.4584 9.38215 13.9512 8.87496 13.3334 8.87496H11.1251V6.66663C11.1251 6.04882 10.6179 5.54163 10.0001 5.54163C9.38227 5.54163 8.87508 6.04882 8.87508 6.66663V8.87496H6.66675C6.04894 8.87496 5.54175 9.38215 5.54175 9.99996C5.54175 10.6178 6.04894 11.125 6.66675 11.125H8.87508V13.3333C8.87508 13.9511 9.38227 14.4583 10.0001 14.4583C10.6179 14.4583 11.1251 13.9511 11.1251 13.3333Z" fill="black" stroke="black"/>
</svg>
