<svg width="45" height="45" viewBox="0 0 45 45" fill="none" xmlns="http://www.w3.org/2000/svg">
<rect opacity="0.08" width="45" height="45" rx="8" fill="#282F6C"/>
<path d="M18 15C18 13.34 19.34 12 21 12H25C26.66 12 28 13.34 28 15C28 15.55 27.55 16 27 16H19C18.45 16 18 15.55 18 15Z" fill="#282F6C"/>
<path d="M28.75 25C28.75 25.41 28.41 25.75 28 25.75H27V29C27 30.66 25.66 32 24 32H22C20.34 32 19 30.66 19 29V25.75H18C17.59 25.75 17.25 25.41 17.25 25C17.25 24.59 17.59 24.25 18 24.25H28C28.41 24.25 28.75 24.59 28.75 25Z" fill="#282F6C"/>
<path d="M29 17H17C15 17 14 18 14 20V25C14 27 15 28 17 28H17.375C17.7202 28 18 27.7202 18 27.375C18 27.0298 17.7113 26.7604 17.3884 26.6384C16.7262 26.3882 16.25 25.7453 16.25 25C16.25 24.04 17.04 23.25 18 23.25H28C28.96 23.25 29.75 24.04 29.75 25C29.75 25.7453 29.2738 26.3882 28.6116 26.6384C28.2887 26.7604 28 27.0298 28 27.375C28 27.7202 28.2798 28 28.625 28H29C31 28 32 27 32 25V20C32 18 31 17 29 17ZM21 21.75H18C17.59 21.75 17.25 21.41 17.25 21C17.25 20.59 17.59 20.25 18 20.25H21C21.41 20.25 21.75 20.59 21.75 21C21.75 21.41 21.41 21.75 21 21.75Z" fill="#282F6C"/>
</svg>