<svg width="216" height="263" viewBox="0 0 216 263" fill="none" xmlns="http://www.w3.org/2000/svg">
<path d="M65.977 13.2881C49.856 7.20974 35.1877 3.14293 24.0699 0.528823C22.581 0.177524 21.0583 0 19.5456 0C13.5598 0 7.97522 2.71412 4.2272 7.44603C0.499176 12.1529 -0.849762 18.2113 0.527954 24.0696C3.14206 35.1873 7.21011 49.8556 13.2885 65.9766L65.977 13.2881ZM49.6785 181.703C49.1597 184.302 49.7622 186.997 51.3412 189.126L103.316 259.208C105.139 261.665 107.965 263 110.852 263C112.358 263 113.88 262.637 115.285 261.882C119.383 259.68 121.248 254.805 119.663 250.43C119.542 250.093 109.398 221.692 111.771 202.105C112.706 194.391 114.814 187.842 116.988 182.75C120.292 183.395 123.586 183.747 126.869 183.853L132.611 202.802C133.568 205.956 136.108 208.376 139.305 209.178C140.06 209.366 140.825 209.459 141.584 209.459C144.04 209.459 146.434 208.492 148.215 206.712L149.7 205.227C154.167 214.238 161.531 225.742 172.715 234.064C191.018 247.68 227.14 248.739 237.779 248.739C237.781 248.739 237.779 248.739 237.781 248.739C238.92 248.739 239.545 248.726 239.545 248.726C244.568 248.617 248.621 244.569 248.725 239.546C248.822 234.854 249.237 193.11 234.063 172.715C225.743 161.532 214.237 154.166 205.227 149.701L206.713 148.214C209.042 145.884 209.978 142.501 209.178 139.305C208.375 136.109 205.956 133.567 202.801 132.612L183.867 126.875C183.763 123.595 183.378 120.302 182.734 117C187.833 114.82 194.387 112.708 202.104 111.773C204.027 111.539 206.145 111.422 208.399 111.422C227.48 111.422 250.199 119.579 250.425 119.661C254.802 121.25 259.677 119.384 261.88 115.285C264.084 111.184 262.945 106.09 259.206 103.317L189.128 51.3408C186.999 49.7619 184.301 49.158 181.704 49.6768C180.745 49.8681 176.725 50.827 165.188 55.1113C159.53 57.2129 153.538 60.1258 148.626 62.7124C129.178 44.3824 106.409 30.9005 84.7233 21.0617L21.0633 84.7204C30.9021 106.406 44.384 129.177 62.7128 148.623C60.1262 153.535 57.2133 159.527 55.1117 165.187C50.8274 176.723 49.8698 180.745 49.6785 181.703ZM163.89 191.038L191.047 163.881C198.073 166.707 210.923 173.029 219.018 183.908C226.607 194.107 229.176 215.73 229.818 229.809C212.997 229.075 193.262 225.975 183.909 219.018C173.087 210.965 166.735 198.076 163.89 191.038ZM70.3151 122.303C63.3716 115.36 59.5486 106.128 59.5486 96.3083C59.5486 86.4894 63.3729 77.2569 70.3151 70.3147C77.2598 63.3712 86.4898 59.547 96.3099 59.547C106.13 59.547 115.36 63.3712 122.305 70.3147C129.248 77.2581 133.071 86.4894 133.071 96.3083C133.071 106.127 129.247 115.36 122.305 122.303C115.36 129.247 106.13 133.071 96.3099 133.071C86.4898 133.071 77.2585 129.247 70.3151 122.303ZM96.3087 78.2995C101.119 78.2995 105.641 80.1735 109.043 83.574C112.446 86.9757 114.319 91.4976 114.319 96.3083C114.319 101.119 112.446 105.641 109.043 109.044C105.641 112.445 101.119 114.318 96.3087 114.318C91.498 114.318 86.9761 112.444 83.5744 109.044C80.1714 105.642 78.2987 101.12 78.2987 96.3083C78.2987 91.4976 80.1714 86.9757 83.5744 83.574C86.9774 80.1735 91.4992 78.2995 96.3087 78.2995Z" fill="white"/>
</svg>
