<svg width="27" height="24" viewBox="0 0 27 24" fill="none" xmlns="http://www.w3.org/2000/svg">
<path d="M26.8597 0.769717C26.7771 0.693627 26.6706 0.653809 26.5629 0.653809C26.498 0.653809 26.4333 0.668209 26.372 0.698317L0.431139 13.423C0.165995 13.5534 -0.00178565 13.8241 1.43401e-05 14.1203C0.00181433 14.4161 0.172431 14.685 0.439484 14.8124L7.27628 18.0701L20.9464 6.83432L8.97018 18.8771L17.4871 22.9353C17.5917 22.9854 17.706 23.0103 17.819 23.0103C17.9154 23.0103 18.0109 22.9928 18.1019 22.957C18.3002 22.8786 18.4579 22.7215 18.5366 22.5231L26.969 1.25048C27.0358 1.08308 26.9923 0.89168 26.8597 0.769717Z" fill="#ED6A9E"/>
</svg>
