<svg width="25" height="25" viewBox="0 0 25 25" fill="none" xmlns="http://www.w3.org/2000/svg">
<rect opacity="0.08" width="25" height="25" rx="3" fill="#282F6C"/>
<path d="M17.6 9.10011H6.97495V8.67511L16.325 7.92711V8.67511H17.6V7.40011C17.6 6.46511 16.8426 5.80891 15.9178 5.94066L7.38295 7.15956C6.4573 7.29216 5.69995 8.16511 5.69995 9.10011V17.6001C5.69995 18.051 5.87906 18.4834 6.19787 18.8022C6.51668 19.121 6.94908 19.3001 7.39995 19.3001H17.6C18.0508 19.3001 18.4832 19.121 18.802 18.8022C19.1208 18.4834 19.3 18.051 19.3 17.6001V10.8001C19.3 10.3492 19.1208 9.91684 18.802 9.59803C18.4832 9.27922 18.0508 9.10011 17.6 9.10011ZM16.325 15.0552C16.1575 15.0552 15.9916 15.0221 15.8369 14.958C15.6822 14.8938 15.5416 14.7998 15.4232 14.6813C15.3048 14.5629 15.2109 14.4222 15.1469 14.2675C15.0828 14.1127 15.0499 13.9469 15.05 13.7794C15.05 13.6119 15.0831 13.446 15.1472 13.2913C15.2113 13.1366 15.3053 12.996 15.4238 12.8776C15.5423 12.7592 15.6829 12.6653 15.8377 12.6013C15.9924 12.5372 16.1583 12.5043 16.3258 12.5044C16.6641 12.5045 16.9884 12.639 17.2275 12.8782C17.4666 13.1175 17.6009 13.4419 17.6008 13.7802C17.6007 14.1185 17.4662 14.4428 17.2269 14.6819C16.9877 14.9211 16.6632 15.0553 16.325 15.0552Z" fill="#282F6C"/>
</svg>