<svg width="24" height="24" viewBox="0 0 24 24" fill="none" xmlns="http://www.w3.org/2000/svg">
<path d="M23.8018 18.377L17.4239 11.9994L23.7998 5.62255C24.064 5.35832 24.064 4.93018 23.7998 4.66595L19.3333 0.198173C19.069 -0.0660576 18.6406 -0.0660576 18.3764 0.198173L11.9995 6.57507L5.62367 0.198173C5.36999 -0.0558557 4.92079 -0.0558557 4.66678 0.198173L0.199266 4.66527C0.0724294 4.79211 0.0010199 4.96452 0.0010199 5.14374C0.0010199 5.32295 0.0724294 5.49536 0.199266 5.62221L6.57613 11.9994L0.198246 18.3774C0.0714092 18.5045 0 18.6766 0 18.8558C0 19.0354 0.0714092 19.2078 0.198246 19.3343L4.66508 23.8017C4.79192 23.9286 4.96466 24 5.14454 24C5.32307 24 5.49513 23.9286 5.62197 23.8017L11.9995 17.4238L18.3774 23.8014C18.5097 23.9333 18.6821 23.9997 18.8558 23.9997C19.0296 23.9997 19.2023 23.9333 19.3346 23.8014L23.8021 19.334C24.066 19.0697 24.066 18.6416 23.8018 18.377Z" fill="black"/>
</svg>
