<svg width="132" height="132" viewBox="0 0 132 132" fill="none" xmlns="http://www.w3.org/2000/svg">
<path d="M106.88 25.1734C105.073 18.9578 96.3344 0.921875 74.6859 0.921875C54.3922 0.921875 45.4141 17.3109 43.4219 22.4375C40.075 21.2688 36.5687 20.6844 32.9828 20.6844C15.3187 20.6844 0.921875 35.1875 0.921875 52.9844C0.921875 70.7813 15.3188 85.2844 33.0094 85.2844H49.9031C52.9047 85.2844 55.3219 82.8406 55.3219 79.8391C55.3219 76.8375 52.9047 74.3938 49.9031 74.3938H33.0094C21.2953 74.3938 11.7594 64.8047 11.7594 53.0109C11.7594 41.2172 21.2953 31.6281 33.0094 31.6281C36.9406 31.6281 40.7656 32.7172 44.1125 34.7891C48.4156 37.4188 51.6297 34.8953 52.2937 31.0172C54.2062 19.9406 63.5031 11.8656 74.7125 11.8656C85.8953 11.8656 95.325 19.9141 97.1313 31.0172C97.5297 33.5406 99.6281 35.4266 102.152 35.5859C112.325 36.1969 120.294 44.7234 120.294 55.0031C120.294 65.7344 111.634 74.4469 100.983 74.4469H84.3547C81.3531 74.4469 78.9359 76.8906 78.9359 79.8922C78.9359 82.8938 81.3531 85.3375 84.3547 85.3375H100.983C117.611 85.3375 131.131 71.7375 131.131 55.0031C131.078 40.3141 120.745 27.9891 106.88 25.1734Z" fill="black"/>
<path d="M82.6547 106.641C80.3969 104.675 76.9969 104.914 75.0578 107.172L71.5781 111.183V48.4688C71.5781 45.4672 69.1609 43.05 66.1859 43.05C63.2109 43.05 60.7938 45.4672 60.7938 48.4688V111.156L57.3406 107.172C55.375 104.914 51.975 104.675 49.7438 106.641C47.5125 108.606 47.2734 112.033 49.2125 114.291L62.1219 129.219C63.1578 130.414 64.6188 131.078 66.1859 131.078C67.7531 131.078 69.2141 130.388 70.25 129.219L83.1594 114.291C85.125 112.033 84.8859 108.606 82.6547 106.641Z" fill="black"/>
</svg>
