<svg width="54" height="54" viewBox="0 0 54 54" fill="none" xmlns="http://www.w3.org/2000/svg">
<path d="M20.5453 30.2168L25.4812 35.659C26.3039 36.5555 27.8648 36.5555 28.6875 35.659L33.6234 30.2168L46.2586 43.7906H7.91016L20.5453 30.2168ZM17.6449 27.0211L5.51602 40.0465V13.6371L17.6449 27.0211ZM27.0844 31.0289L8.21602 10.2094H45.9422L27.0844 31.0289ZM48.6316 13.6371V40.0465L36.5027 27.0211L48.6316 13.6371ZM50.6777 5.90625H3.32227C2.13047 5.90625 1.16016 6.86602 1.16016 8.05781V45.9422C1.16016 47.134 2.13047 48.0938 3.32227 48.0938H50.6672C51.859 48.0938 52.8293 47.134 52.8293 45.9422V8.05781C52.8398 6.86602 51.8695 5.90625 50.6777 5.90625Z" fill="white"/>
</svg>
