<svg width="109" height="125" viewBox="0 0 109 125" fill="none" xmlns="http://www.w3.org/2000/svg">
<path d="M8.45482 22.6733C13.1243 22.6733 16.9096 18.1251 16.9096 12.5146C16.9096 6.90416 13.1243 2.35596 8.45482 2.35596C3.78535 2.35596 0 6.90416 0 12.5146C0 18.1251 3.78535 22.6733 8.45482 22.6733Z" fill="white"/>
<path d="M40.6687 117.308C40.6687 121.137 38.0406 124.255 34.8176 124.255C31.5742 124.255 28.9583 121.137 28.9583 117.308L28.9705 81.6084H3.83016C3.16192 81.6084 2.62 80.9818 2.62 80.1593V29.4931C2.62 28.6804 3.16192 28.0293 3.83016 28.0293H13.0755C13.7355 28.0293 14.2856 28.6853 14.2856 29.4931V67.6115H39.4219C40.0942 67.6115 40.628 68.2528 40.628 69.0753L40.6687 117.308Z" fill="white"/>
<path d="M100.545 22.7566C105.215 22.7566 109 18.2084 109 12.5979C109 6.98741 105.215 2.43921 100.545 2.43921C95.8757 2.43921 92.0903 6.98741 92.0903 12.5979C92.0903 18.2084 95.8757 22.7566 100.545 22.7566Z" fill="white"/>
<path d="M68.3354 117.387C68.3354 121.215 70.9513 124.339 74.1784 124.339C77.4136 124.339 80.0376 121.215 80.0376 117.387L80.0254 81.6966H105.162C105.83 81.6966 106.376 81.0406 106.376 80.2279V29.5715C106.376 28.7588 105.83 28.1077 105.162 28.1077H95.9327C95.2686 28.1077 94.7103 28.7588 94.7103 29.5715V67.6947H69.57C68.9017 67.6947 68.3476 68.341 68.3476 69.1439L68.3354 117.387Z" fill="white"/>
<path d="M50.4559 61.5651H28.1474V51.8813H82.458V61.5651H60.0476V124.343H50.4559V61.5651Z" fill="white"/>
<path d="M56.3193 21.278C61.0653 21.278 64.9127 16.6552 64.9127 10.9528C64.9127 5.25041 61.0653 0.627686 56.3193 0.627686C51.5733 0.627686 47.726 5.25041 47.726 10.9528C47.726 16.6552 51.5733 21.278 56.3193 21.278Z" fill="white"/>
<path d="M43.142 36.582H45.4197L45.4116 49.0515H67.1456V36.4694H69.4966V49.0515H76.7494V34.6776C75.9589 23.3635 65.0227 23.525 65.0227 23.525H47.7952C35.4369 23.7943 35.8892 34.6776 35.8892 34.6776V49.0515H43.142V36.582Z" fill="white"/>
</svg>
