<svg width="98" height="98" viewBox="0 0 98 98" fill="none" xmlns="http://www.w3.org/2000/svg">
<g filter="url(#filter0_d_311_3)">
<circle cx="49" cy="42" r="42" fill="#ED6A9E"/>
</g>
<path d="M57.9958 29.9942C56.3705 26.4589 53.5855 23.5854 50.1027 21.8504C46.6198 20.1155 42.6485 19.6233 38.8475 20.4556C35.0466 21.2879 31.6443 23.3946 29.2052 26.4262C26.7661 29.4579 25.4367 33.2323 25.4375 37.1233V50.5296C25.4386 51.4989 25.8242 52.4283 26.5096 53.1137C27.1951 53.7991 28.1244 54.1847 29.0938 54.1858H40.0831C41.4702 57.1007 43.6542 59.5634 46.3825 61.2888C49.1108 63.0142 52.2719 63.932 55.5 63.9358H68.9062C69.8756 63.9347 70.8049 63.5491 71.4904 62.8637C72.1758 62.1783 72.5614 61.2489 72.5625 60.2796V46.8733C72.5634 42.7803 71.0925 38.8233 68.4184 35.7246C65.7442 32.6259 62.045 30.5921 57.9958 29.9942ZM30.3125 37.1233C30.3125 34.7129 31.0273 32.3565 32.3665 30.3523C33.7056 28.3481 35.6091 26.786 37.836 25.8635C40.063 24.9411 42.5135 24.6997 44.8777 25.17C47.2418 25.6402 49.4134 26.801 51.1179 28.5054C52.8223 30.2099 53.9831 32.3815 54.4533 34.7456C54.9236 37.1098 54.6822 39.5603 53.7598 41.7873C52.8373 44.0142 51.2752 45.9177 49.271 47.2568C47.2668 48.596 44.9105 49.3108 42.5 49.3108H30.3125V37.1233ZM67.6875 59.0608H55.5C53.55 59.0588 51.6288 58.5899 49.8971 57.6935C48.1653 56.7971 46.6733 55.4991 45.5458 53.9081C49.7796 53.1407 53.5671 50.8017 56.1492 47.3598C58.7314 43.9179 59.9175 39.6273 59.47 35.3478C61.8689 36.1746 63.9501 37.7294 65.4232 39.7955C66.8963 41.8616 67.6878 44.3359 67.6875 46.8733V59.0608Z" fill="white"/>
<defs>
<filter id="filter0_d_311_3" x="0" y="0" width="98" height="98" filterUnits="userSpaceOnUse" color-interpolation-filters="sRGB">
<feFlood flood-opacity="0" result="BackgroundImageFix"/>
<feColorMatrix in="SourceAlpha" type="matrix" values="0 0 0 0 0 0 0 0 0 0 0 0 0 0 0 0 0 0 127 0" result="hardAlpha"/>
<feOffset dy="7"/>
<feGaussianBlur stdDeviation="3.5"/>
<feComposite in2="hardAlpha" operator="out"/>
<feColorMatrix type="matrix" values="0 0 0 0 0 0 0 0 0 0 0 0 0 0 0 0 0 0 0.25 0"/>
<feBlend mode="normal" in2="BackgroundImageFix" result="effect1_dropShadow_311_3"/>
<feBlend mode="normal" in="SourceGraphic" in2="effect1_dropShadow_311_3" result="shape"/>
</filter>
</defs>
</svg>
