<svg width="45" height="45" viewBox="0 0 45 45" fill="none" xmlns="http://www.w3.org/2000/svg">
<g clip-path="url(#clip0_125_175)">
<path d="M44.5178 34.1267C42.8427 30.96 37.0256 27.5263 36.7695 27.3762C36.022 26.9507 35.242 26.7254 34.5121 26.7254C33.4267 26.7254 32.5383 27.2227 32.0002 28.127C31.1493 29.1447 30.094 30.3343 29.8379 30.5187C27.8557 31.8635 26.3041 31.7108 24.5872 29.994L15.0053 20.4112C13.2993 18.7052 13.1424 17.1343 14.478 15.163C14.6649 14.9053 15.8545 13.8491 16.8723 12.9974C17.5213 12.6111 17.9668 12.0372 18.162 11.3331C18.4214 10.3962 18.2304 9.29423 17.6181 8.22058C17.4738 7.97364 14.0384 2.15573 10.8733 0.481431C10.2827 0.168595 9.61699 0.00341797 8.94961 0.00341797C7.85009 0.00341797 6.81565 0.432212 6.03815 1.20888L3.92087 3.32532C0.572275 6.67308 -0.63986 10.468 0.316167 14.6041C1.11369 18.0511 3.43785 21.7192 7.22525 25.5058L19.4926 37.7731C24.2861 42.5666 28.856 44.9976 33.0755 44.9976C33.0755 44.9976 33.0755 44.9976 33.0764 44.9976C36.1797 44.9976 39.0728 43.6787 41.6731 41.0784L43.7895 38.9619C45.0759 37.6764 45.3679 35.7326 44.5178 34.1267Z" fill="white"/>
</g>
<defs>
<clipPath id="clip0_125_175">
<rect width="45" height="45" fill="white"/>
</clipPath>
</defs>
</svg>
