<svg width="124" height="125" viewBox="0 0 124 125" fill="none" xmlns="http://www.w3.org/2000/svg">
<path d="M110.125 49C114.54 51.5422 118.12 55.3142 120.428 59.8559C122.735 64.3976 123.672 69.5128 123.123 74.5776C122.574 79.6424 120.563 84.438 117.335 88.3795C114.107 92.321 109.802 95.2381 104.945 96.775C103.228 104.565 98.9027 111.536 92.6841 116.532C86.4656 121.529 78.7272 124.251 70.75 124.25H57.625C56.4647 124.25 55.3519 123.789 54.5314 122.969C53.7109 122.148 53.25 121.035 53.25 119.875C53.25 118.715 53.7109 117.602 54.5314 116.781C55.3519 115.961 56.4647 115.5 57.625 115.5H70.75C76.1804 115.502 81.4777 113.819 85.9125 110.685C90.3472 107.551 93.7012 103.119 95.5125 98H92.625C91.4647 98 90.3519 97.5391 89.5314 96.7186C88.7109 95.8981 88.25 94.7853 88.25 93.625V49.875C88.25 48.7147 88.7109 47.6019 89.5314 46.7814C90.3519 45.9609 91.4647 45.5 92.625 45.5H97C98.4175 45.5 99.8088 45.6138 101.174 45.8325C100.189 36.1278 95.6366 27.1342 88.3992 20.5942C81.1619 14.0542 71.7545 10.4334 62 10.4334C52.2455 10.4334 42.8381 14.0542 35.6008 20.5942C28.3634 27.1342 23.8112 36.1278 22.8263 45.8325C24.2065 45.6114 25.6021 45.5002 27 45.5H31.375C32.5353 45.5 33.6481 45.9609 34.4686 46.7814C35.2891 47.6019 35.75 48.7147 35.75 49.875L35.75 93.625C35.75 94.7853 35.2891 95.8981 34.4686 96.7186C33.6481 97.5391 32.5353 98 31.375 98H27C21.2161 98.0064 15.592 96.1024 11.0015 92.5837C6.41099 89.0651 3.11114 84.1288 1.61464 78.5418C0.11813 72.9549 0.508758 67.0301 2.72583 61.688C4.9429 56.3458 8.86227 51.8855 13.875 49C13.875 36.2365 18.9453 23.9957 27.9705 14.9705C36.9957 5.9453 49.2365 0.875 62 0.875C74.7635 0.875 87.0043 5.9453 96.0295 14.9705C105.055 23.9957 110.125 36.2365 110.125 49ZM27 54.25C22.3587 54.25 17.9075 56.0937 14.6256 59.3756C11.3437 62.6575 9.5 67.1087 9.5 71.75C9.5 76.3913 11.3437 80.8425 14.6256 84.1244C17.9075 87.4062 22.3587 89.25 27 89.25V54.25ZM114.5 71.75C114.5 67.1087 112.656 62.6575 109.374 59.3756C106.092 56.0937 101.641 54.25 97 54.25V89.25C101.641 89.25 106.092 87.4062 109.374 84.1244C112.656 80.8425 114.5 76.3913 114.5 71.75Z" fill="black"/>
</svg>
